<svg xmlns="http://www.w3.org/2000/svg" xmlns:xlink="http://www.w3.org/1999/xlink" width="1080" zoomAndPan="magnify" viewBox="0 0 810 809.999993" height="1080" preserveAspectRatio="xMidYMid meet" version="1.0"><defs><g/><clipPath id="ab07b3da30"><path d="M 76.726562 149 L 203 149 L 203 283 L 76.726562 283 Z M 76.726562 149 " clip-rule="nonzero"/></clipPath></defs><rect x="-81" width="972" fill="#ffffff" y="-80.999999" height="971.999992" fill-opacity="1"/><rect x="-81" width="972" fill="#ffffff" y="-80.999999" height="971.999992" fill-opacity="1"/><rect x="-81" width="972" fill="#cf2b2b" y="-80.999999" height="971.999992" fill-opacity="1"/><path fill="#000000" d="M 219.84375 282.546875 L 219.84375 149.632812 L 247.890625 149.632812 L 247.890625 187.183594 L 240.585938 183.132812 L 274.925781 149.863281 L 298.234375 149.863281 L 298.234375 179.003906 L 274.925781 179.003906 C 271.261719 178.703125 267.570312 179.15625 264.082031 180.335938 C 260.597656 181.511719 257.386719 183.394531 254.648438 185.859375 C 249.78125 191.613281 247.382812 199.0625 247.96875 206.582031 L 247.96875 282.78125 Z M 219.84375 282.546875 " fill-opacity="1" fill-rule="nonzero"/><path fill="#000000" d="M 345.613281 149.632812 L 317.566406 149.632812 L 317.566406 282.546875 L 345.613281 282.546875 Z M 345.613281 149.632812 " fill-opacity="1" fill-rule="nonzero"/><path fill="#000000" d="M 410.972656 282.546875 L 363.039062 149.632812 L 393.417969 149.632812 L 436.613281 278.886719 L 422.238281 278.886719 L 464.117188 149.632812 L 494.804688 149.632812 L 446.867188 282.546875 Z M 410.972656 282.546875 " fill-opacity="1" fill-rule="nonzero"/><path fill="#000000" d="M 556.863281 285.199219 C 545.304688 285.4375 533.871094 282.757812 523.613281 277.40625 C 514.054688 272.226562 506.019531 264.625 500.304688 255.355469 C 494.472656 245.65625 491.484375 234.503906 491.679688 223.179688 C 491.679688 181.808594 517.164062 147.21875 557.40625 147.21875 C 566.582031 147.230469 575.632812 149.308594 583.898438 153.292969 C 592.648438 157.449219 600.191406 163.777344 605.808594 171.679688 C 612.128906 180.761719 615.957031 191.347656 616.921875 202.378906 L 593.613281 225.75 L 519.183594 225.75 C 520.109375 232.089844 522.503906 238.121094 526.175781 243.359375 C 529.6875 248.371094 534.421875 252.394531 539.929688 255.046875 C 545.796875 257.835938 552.234375 259.222656 558.726562 259.097656 C 565.621094 259.273438 572.457031 257.832031 578.695312 254.890625 C 584.039062 252.230469 588.960938 248.789062 593.300781 244.683594 L 607.207031 265.71875 C 600.835938 272.023438 593.285156 277.003906 584.988281 280.367188 C 576.019531 283.808594 566.464844 285.449219 556.863281 285.199219 Z M 589.882812 202.765625 C 588.8125 197.238281 586.730469 191.957031 583.746094 187.183594 C 580.839844 182.679688 576.828125 179.003906 572.09375 176.511719 C 566.550781 173.746094 560.410156 172.40625 554.222656 172.617188 C 548.820312 172.527344 543.480469 173.785156 538.683594 176.277344 C 533.945312 178.902344 529.917969 182.644531 526.953125 187.183594 C 523.648438 191.875 521.300781 197.167969 520.039062 202.765625 Z M 589.882812 202.765625 " fill-opacity="1" fill-rule="nonzero"/><g clip-path="url(#ab07b3da30)"><path fill="#000000" d="M 76.730469 282.546875 L 76.730469 149.632812 L 138.496094 149.632812 C 149.953125 149.429688 161.277344 152.105469 171.433594 157.421875 C 180.914062 162.363281 188.828125 169.867188 194.277344 179.082031 C 199.855469 188.5 202.707031 199.292969 202.511719 210.246094 C 202.566406 216.90625 201.460938 223.523438 199.25 229.800781 C 197.054688 235.820312 194.046875 241.507812 190.3125 246.707031 C 186.152344 252.265625 181.554688 257.472656 176.5625 262.292969 L 157.0625 282.234375 Z M 140.359375 258.238281 C 146.707031 258.203125 152.910156 256.335938 158.226562 252.863281 C 164.011719 249.039062 168.742188 243.8125 171.980469 237.671875 C 175.5625 230.828125 177.378906 223.195312 177.261719 215.464844 C 177.402344 208.042969 175.609375 200.710938 172.054688 194.195312 C 168.605469 188.054688 163.558594 182.964844 157.449219 179.472656 C 150.8125 175.804688 143.351562 173.898438 135.773438 173.941406 L 100.8125 173.941406 L 100.8125 258.238281 Z M 140.359375 258.238281 " fill-opacity="1" fill-rule="nonzero"/></g><path fill="#000000" d="M 738.046875 172.460938 C 734.140625 164.621094 728.039062 158.097656 720.488281 153.683594 C 708.792969 147.476562 695.304688 145.546875 682.339844 148.230469 L 680.320312 148.777344 L 657.480469 171.601562 L 657.480469 149.710938 L 629.433594 149.710938 L 629.433594 282.628906 L 657.480469 282.628906 L 657.480469 207.988281 C 656.921875 198.636719 659.855469 189.414062 665.714844 182.121094 C 668.492188 179.03125 671.921875 176.59375 675.746094 174.992188 C 679.578125 173.386719 683.714844 172.65625 687.859375 172.851562 C 693.167969 172.710938 698.402344 174.121094 702.929688 176.902344 C 707.398438 179.816406 710.867188 184.027344 712.871094 188.976562 C 715.359375 195 716.578125 201.472656 716.449219 207.988281 L 716.449219 282.628906 L 744.496094 282.628906 L 744.496094 200.820312 C 744.632812 190.984375 742.421875 181.261719 738.046875 172.460938 Z M 738.046875 172.460938 " fill-opacity="1" fill-rule="nonzero"/><g fill="#ffffff" fill-opacity="1"><g transform="translate(59.934284, 577.001507)"><g><path d="M 17.953125 0 L 176.300781 0 L 176.300781 -42.371094 L 66.425781 -42.371094 L 66.425781 -105.566406 L 172.710938 -105.566406 L 172.710938 -146.859375 L 66.425781 -146.859375 L 66.425781 -208.976562 L 176.300781 -208.976562 L 176.300781 -251.347656 L 17.953125 -251.347656 Z M 17.953125 0 "/></g></g></g><g fill="#ffffff" fill-opacity="1"><g transform="translate(252.753757, 577.001507)"><g><path d="M 7.898438 -52.066406 C 7.898438 -19.390625 35.1875 4.667969 72.171875 4.667969 C 96.949219 4.667969 117.414062 -5.386719 130.34375 -21.902344 C 136.804688 -8.257812 150.449219 0 168.402344 0 L 190.304688 0 L 190.304688 -40.574219 L 180.613281 -40.574219 C 173.789062 -40.574219 170.199219 -44.523438 170.199219 -51.347656 L 170.199219 -124.238281 C 170.199219 -163.734375 140.753906 -189.589844 96.230469 -189.589844 C 67.863281 -189.589844 43.089844 -180.613281 21.542969 -164.8125 L 41.292969 -131.417969 C 57.808594 -142.550781 73.609375 -147.9375 90.484375 -147.9375 C 112.386719 -147.9375 124.597656 -136.804688 124.597656 -118.492188 L 124.597656 -111.3125 L 70.019531 -107.363281 C 30.519531 -104.488281 7.898438 -85.457031 7.898438 -52.066406 Z M 52.78125 -52.425781 C 52.78125 -64.632812 60.683594 -71.09375 76.480469 -72.53125 L 124.597656 -76.839844 L 124.597656 -64.992188 C 124.597656 -46.320312 105.925781 -31.238281 82.585938 -31.238281 C 64.992188 -31.238281 52.78125 -39.496094 52.78125 -52.425781 Z M 52.78125 -52.425781 "/></g></g></g><g fill="#ffffff" fill-opacity="1"><g transform="translate(448.445834, 577.001507)"><g><path d="M 90.84375 0 L 127.46875 0 L 127.46875 -40.574219 L 104.128906 -40.574219 C 93.359375 -40.574219 86.535156 -45.242188 86.535156 -54.9375 L 86.535156 -145.0625 L 127.46875 -145.0625 L 127.46875 -185.636719 L 86.535156 -185.636719 L 86.535156 -239.5 L 39.855469 -239.5 L 39.855469 -185.636719 L 3.589844 -185.636719 L 3.589844 -145.0625 L 39.855469 -145.0625 L 39.855469 -46.679688 C 39.855469 -20.109375 57.09375 0 90.84375 0 Z M 90.84375 0 "/></g></g></g><g fill="#ffffff" fill-opacity="1"><g transform="translate(579.864754, 577.001507)"><g><path d="M 91.203125 4.308594 C 136.085938 4.308594 163.375 -21.183594 163.375 -54.578125 C 163.375 -82.226562 146.5 -100.179688 112.386719 -108.4375 L 76.839844 -117.054688 C 62.117188 -120.648438 54.578125 -127.109375 54.578125 -136.804688 C 54.578125 -146.5 62.476562 -154.039062 77.558594 -154.039062 C 93 -154.039062 110.234375 -146.140625 115.261719 -126.75 L 159.425781 -126.75 C 154.039062 -162.300781 125.316406 -190.304688 77.917969 -190.304688 C 38.0625 -190.304688 8.617188 -167.324219 8.617188 -131.777344 C 8.617188 -103.410156 26.210938 -85.457031 60.683594 -77.199219 L 99.101562 -68.222656 C 111.671875 -64.992188 117.773438 -58.527344 117.773438 -50.988281 C 117.773438 -39.855469 108.4375 -31.957031 91.203125 -31.957031 C 71.09375 -31.957031 54.578125 -39.855469 49.910156 -58.527344 L 5.386719 -58.527344 C 12.566406 -22.980469 42.371094 4.308594 91.203125 4.308594 Z M 91.203125 4.308594 "/></g></g></g></svg>